HIERARCHY
ROOT joint_Root
{
	OFFSET 0.0 0.0 0.0
	CHANNELS 6 Xposition Yposition Zposition Zrotation Xrotation Yrotation 
	JOINT Hips
	{
		OFFSET 4.5925 91.4895 -427.239
		CHANNELS 6 Xposition Yposition Zposition Zrotation Xrotation Yrotation 
		JOINT Spine
		{
			OFFSET 15.7357 0.0 0.0
			CHANNELS 6 Xposition Yposition Zposition Zrotation Xrotation Yrotation 
			JOINT Chest
			{
				OFFSET 8.98455 -0.406207 0.0
				CHANNELS 6 Xposition Yposition Zposition Zrotation Xrotation Yrotation 
				JOINT Neck
				{
					OFFSET 16.3773 0.0 0.0
					CHANNELS 6 Xposition Yposition Zposition Zrotation Xrotation Yrotation 
					JOINT Head
					{
						OFFSET 6.45672 0.0 0.0
						CHANNELS 6 Xposition Yposition Zposition Zrotation Xrotation Yrotation 
						End Site
						{
							OFFSET 0.0 0.0 0.0
						}
					}
				}
				JOINT Shoulder_L
				{
					OFFSET 12.9942 -0.242716 4.98039
					CHANNELS 6 Xposition Yposition Zposition Zrotation Xrotation Yrotation 
					JOINT UpperArm_L
					{
						OFFSET 5.34809 0.0 0.0
						CHANNELS 6 Xposition Yposition Zposition Zrotation Xrotation Yrotation 
						JOINT LowerArm_L
						{
							OFFSET 24.3286 1.87007e-05 0.0
							CHANNELS 6 Xposition Yposition Zposition Zrotation Xrotation Yrotation 
							JOINT Hand_L
							{
								OFFSET 22.2916 0.0 0.0
								CHANNELS 6 Xposition Yposition Zposition Zrotation Xrotation Yrotation 
								End Site
								{
									OFFSET 0.0 0.0 0.0
								}
							}
						}
					}
				}
				JOINT Shoulder_R
				{
					OFFSET 12.9945 -0.242716 -4.98039
					CHANNELS 6 Xposition Yposition Zposition Zrotation Xrotation Yrotation 
					JOINT UpperArm_R
					{
						OFFSET -5.34813 0.0 0.0
						CHANNELS 6 Xposition Yposition Zposition Zrotation Xrotation Yrotation 
						JOINT LowerArm_R
						{
							OFFSET -24.3289 0.000322201 0.0
							CHANNELS 6 Xposition Yposition Zposition Zrotation Xrotation Yrotation 
							JOINT Hand_R
							{
								OFFSET -22.2915 -0.000108084 0.0
								CHANNELS 6 Xposition Yposition Zposition Zrotation Xrotation Yrotation 
								End Site
								{
									OFFSET 0.0 0.0 0.0
								}
							}
						}
					}
				}
			}
		}
		JOINT UpperLeg_L
		{
			OFFSET -2.19248 -6.46944 0.0
			CHANNELS 6 Xposition Yposition Zposition Zrotation Xrotation Yrotation 
			JOINT LowerLeg_L
			{
				OFFSET 39.0811 0.0 -1.23785e-05
				CHANNELS 6 Xposition Yposition Zposition Zrotation Xrotation Yrotation 
				JOINT Foot_L
				{
					OFFSET 40.9854 0.0 -1.26872e-05
					CHANNELS 6 Xposition Yposition Zposition Zrotation Xrotation Yrotation 
					JOINT Toes_L
					{
						OFFSET 11.7543 0.0 0.0
						CHANNELS 6 Xposition Yposition Zposition Zrotation Xrotation Yrotation 
						End Site
						{
							OFFSET 0.0 0.0 0.0
						}
					}
				}
			}
		}
		JOINT UpperLeg_R
		{
			OFFSET -2.19251 6.46944 0.0
			CHANNELS 6 Xposition Yposition Zposition Zrotation Xrotation Yrotation 
			JOINT LowerLeg_R
			{
				OFFSET -39.0811 -0.00228153 -0.0401928
				CHANNELS 6 Xposition Yposition Zposition Zrotation Xrotation Yrotation 
				JOINT Foot_R
				{
					OFFSET -40.9854 0.0 0.0
					CHANNELS 6 Xposition Yposition Zposition Zrotation Xrotation Yrotation 
					JOINT Toes_R
					{
						OFFSET -11.7543 0.0 0.0
						CHANNELS 6 Xposition Yposition Zposition Zrotation Xrotation Yrotation 
						End Site
						{
							OFFSET 0.0 0.0 0.0
						}
					}
				}
			}
		}
	}
}
MOTION
Frames:	5
Frame Time:	0.0333333
0.000000 0.000000 0.000000 0.000000 0.000000 -0.000000 128.010000 90.467400 -14.295100 90.445400 -4.418090 -4.330620 15.735700 0.000005 -0.000001 105.790000 84.730600 -106.356000 8.984550 -0.406207 -0.000000 2.392500 2.892070 -1.191500 16.377300 -0.000001 -0.000001 -5.302920 -3.853210 2.049570 6.456720 -0.000001 -0.000000 -8.624320 -6.030080 4.482080 12.994200 -0.242716 4.980390 -90.453900 1.484590 -72.997100 5.348090 -0.000007 -0.000001 -69.409500 16.112600 7.201020 24.328600 0.000019 0.000005 3.285440 26.534500 -7.322260 22.291600 -0.000001 0.000005 11.285100 5.057080 6.079560 12.994500 -0.242716 -4.980390 89.200400 6.620830 -83.098100 -5.348130 -0.000001 -0.000004 -53.953100 34.087300 -33.614300 -24.328900 0.000322 -0.000009 0.322208 0.348087 -42.855900 -22.291500 -0.000108 -0.000004 17.351200 5.437860 -4.209930 -2.192480 -6.469440 -0.000000 -179.721000 -2.463720 -26.998600 39.081100 -0.000007 -0.000012 0.027400 -0.040272 34.229100 40.985400 -0.000006 -0.000013 5.588460 -1.003250 -64.321200 11.754300 -0.000000 0.000003 -0.006219 -0.072823 -19.540800 -2.192510 6.469440 -0.000001 176.969000 8.199580 -179.186000 -39.081100 -0.002282 -0.040193 0.054724 -0.082182 32.036900 -40.985400 0.000008 0.000006 16.013300 16.202400 -67.685800 -11.754300 -0.000006 -0.000006 -0.095803 -0.434022 -34.667500
0.000000 0.000000 0.000000 0.000000 0.000000 -0.000000 129.042000 89.620500 -10.594400 91.133600 -5.547670 -4.545130 15.735700 0.000005 -0.000001 105.392000 84.631200 -106.371000 8.984550 -0.406207 -0.000000 2.614870 2.891520 -2.023560 16.377300 -0.000001 -0.000001 -5.658080 -4.082620 1.967410 6.456720 -0.000001 -0.000000 -9.819110 -6.505710 3.637060 12.994200 -0.242716 4.980390 -90.387100 1.257310 -72.886000 5.348090 -0.000007 -0.000001 -67.888600 13.522400 9.977480 24.328600 0.000019 0.000005 2.789640 27.455100 -6.033230 22.291600 -0.000001 0.000005 11.941800 5.033220 6.603700 12.994500 -0.242716 -4.980390 89.143000 7.082110 -83.082300 -5.348130 -0.000001 -0.000004 -51.022100 33.608000 -36.596700 -24.328900 0.000322 -0.000009 0.676436 0.613212 -47.868200 -22.291500 -0.000108 -0.000004 18.216000 5.450850 -4.667350 -2.192480 -6.469440 -0.000000 177.812000 -6.319310 -30.045500 39.081100 -0.000007 -0.000012 -0.049557 0.071166 34.852200 40.985400 -0.000006 -0.000013 4.028010 2.504040 -60.246400 11.754300 -0.000000 0.000003 -1.014060 -1.295240 -15.412500 -2.192510 6.469440 -0.000001 174.575000 8.289960 -177.702000 -39.081100 -0.002282 -0.040193 0.057446 -0.083075 33.097400 -40.985400 0.000008 0.000006 16.216100 17.414600 -67.949000 -11.754300 -0.000006 -0.000006 -0.127004 -0.507149 -37.891300
0.000000 0.000000 0.000000 0.000000 0.000000 -0.000000 129.863000 88.246200 -5.737090 90.297600 -6.020890 -3.648040 15.735700 0.000005 -0.000001 105.194000 84.428700 -105.956000 8.984550 -0.406207 -0.000000 3.010620 2.949020 -1.599890 16.377300 -0.000001 -0.000001 -5.369830 -4.556100 1.783400 6.456720 -0.000001 -0.000000 -9.812770 -6.975230 2.681000 12.994200 -0.242716 4.980390 -90.362100 1.190180 -73.076700 5.348090 -0.000007 -0.000001 -66.822600 12.729000 11.977800 24.328600 0.000019 0.000005 1.633410 28.293400 -3.443050 22.291600 -0.000001 0.000005 12.735900 4.988950 7.551860 12.994500 -0.242716 -4.980390 89.116900 7.167190 -82.956800 -5.348130 -0.000001 -0.000004 -49.487100 33.095300 -37.759900 -24.328900 0.000322 -0.000009 0.592663 0.472250 -51.516700 -22.291500 -0.000108 -0.000004 19.230800 5.471150 -5.409800 -2.192480 -6.469440 -0.000000 177.817000 -6.853550 -29.849700 39.081100 -0.000007 -0.000012 0.048884 -0.051576 43.463900 40.985400 -0.000006 -0.000013 6.665540 0.574494 -68.242500 11.754300 -0.000000 0.000003 -0.955157 -1.227640 -14.918300 -2.192510 6.469440 -0.000001 173.774000 7.841360 -174.642000 -39.081100 -0.002282 -0.040193 0.073662 -0.101067 34.848600 -40.985400 0.000008 0.000006 16.358900 18.190400 -67.103100 -11.754300 -0.000006 -0.000006 -0.182856 -0.615839 -42.847100
0.000000 0.000000 0.000000 0.000000 0.000000 -0.000000 130.640000 87.195800 -0.867716 90.008500 -5.975930 -3.055870 15.735700 0.000005 -0.000001 104.855000 84.529600 -105.561000 8.984550 -0.406207 -0.000000 2.830090 2.832750 -1.480200 16.377300 -0.000001 -0.000001 -4.747880 -5.073650 1.717650 6.456720 -0.000001 -0.000000 -9.334210 -7.518030 1.662310 12.994200 -0.242716 4.980390 -90.613900 1.997290 -72.912600 5.348090 -0.000007 -0.000001 -65.360800 13.710900 12.122000 24.328600 0.000019 0.000005 -0.000596 29.003000 -0.000003 22.291600 -0.000001 0.000005 13.494800 4.909540 9.183640 12.994500 -0.242716 -4.980390 88.979700 8.014410 -82.720500 -5.348130 -0.000001 -0.000004 -48.828300 32.603700 -37.056600 -24.328900 0.000322 -0.000009 0.783554 0.585594 -53.271800 -22.291500 -0.000108 -0.000004 20.138600 5.486980 -6.016700 -2.192480 -6.469440 -0.000000 177.750000 -6.563900 -27.935700 39.081100 -0.000007 -0.000012 0.060143 -0.054274 47.934600 40.985400 -0.000006 -0.000013 7.032900 -0.099789 -73.680500 11.754300 -0.000000 0.000003 -2.196810 -3.087140 -14.942800 -2.192510 6.469440 -0.000001 172.704000 7.589980 -173.823000 -39.081100 -0.002282 -0.040193 0.091823 -0.109640 38.923100 -40.985400 0.000008 0.000006 15.313800 19.427400 -62.690300 -11.754300 -0.000006 -0.000006 -0.269742 -0.750049 -49.332800
0.000000 0.000000 0.000000 0.000000 0.000000 -0.000000 131.423000 86.579100 3.891360 89.480800 -6.029270 -2.178300 15.735700 0.000005 -0.000001 105.703000 84.446500 -106.357000 8.984550 -0.406207 -0.000000 2.947730 3.030660 -1.385780 16.377300 -0.000001 -0.000001 -4.184880 -5.348540 1.520550 6.456720 -0.000001 -0.000000 -8.801390 -8.303240 1.172670 12.994200 -0.242716 4.980390 -90.721400 2.273570 -72.391000 5.348090 -0.000007 -0.000001 -64.388500 13.416800 10.094100 24.328600 0.000019 0.000005 0.000048 31.717600 -0.000003 22.291600 -0.000001 0.000005 13.320800 4.765690 11.962700 12.994500 -0.242716 -4.980390 88.900900 8.562340 -82.657400 -5.348130 -0.000001 -0.000004 -50.998800 31.579500 -34.530900 -24.328900 0.000322 -0.000009 1.151710 0.885404 -52.485100 -22.291500 -0.000108 -0.000004 20.682600 5.503110 -6.658040 -2.192480 -6.469440 -0.000000 177.752000 -7.296220 -24.345000 39.081100 -0.000007 -0.000012 0.069545 -0.058598 49.881200 40.985400 -0.000006 -0.000013 7.808120 -0.523211 -77.952000 11.754300 -0.000000 0.000003 -2.198230 -3.159590 -15.341300 -2.192510 6.469440 -0.000001 171.946000 6.956140 -175.374000 -39.081100 -0.002282 -0.040193 0.107110 -0.100838 45.842700 -40.985400 0.000008 0.000006 11.697800 21.031600 -54.847700 -11.754300 -0.000006 -0.000006 -0.242312 -0.711160 -47.403200
